HIERARCHY
ROOT hip
{
  OFFSET 0 0 0
  CHANNELS 6 Xposition Yposition Zposition Zrotation Yrotation Xrotation
  JOINT abdomen
  {
    OFFSET 0 20.6881 -0.73152
    CHANNELS 3 Zrotation Xrotation Yrotation
    JOINT chest
    {
      OFFSET 0 11.7043 -0.48768
      CHANNELS 3 Zrotation Xrotation Yrotation
      JOINT neck
      {
        OFFSET 0 22.1894 -2.19456
        CHANNELS 3 Zrotation Xrotation Yrotation
        JOINT head
        {
          OFFSET -0.24384 7.07133 1.2192
          CHANNELS 3 Zrotation Xrotation Yrotation
          JOINT leftEye
          {
            OFFSET 4.14528 8.04674 8.04672
            CHANNELS 3 Zrotation Xrotation Yrotation
            End Site
            {
              OFFSET 1 0 0
            }
          }
          JOINT rightEye
          {
            OFFSET -3.6576 8.04674 8.04672
            CHANNELS 3 Zrotation Xrotation Yrotation
            End Site
            {
              OFFSET 1 0 0
            }
          }
        }
      }
      JOINT rCollar
      {
        OFFSET -2.68224 19.2634 -4.8768
        CHANNELS 3 Zrotation Xrotation Yrotation
        JOINT rShldr
        {
          OFFSET -8.77824 -1.95073 1.46304
          CHANNELS 3 Zrotation Xrotation Yrotation
          JOINT rForeArm
          {
            OFFSET -28.1742 -1.7115 0.48768
            CHANNELS 3 Zrotation Xrotation Yrotation
            JOINT rHand
            {
              OFFSET -22.5879 0.773209 7.07136
              CHANNELS 3 Zrotation Xrotation Yrotation
              JOINT rThumb1
              {
                OFFSET -1.2192 -0.487915 3.41376
                CHANNELS 3 Zrotation Xrotation Yrotation
                JOINT rThumb2
                {
                  OFFSET -3.37035 -0.52449 3.41376
                  CHANNELS 3 Zrotation Xrotation Yrotation
                  End Site
                  {
                    OFFSET -1.78271 -1.18214 1.43049
                  }
                }
              }
              JOINT rIndex1
              {
                OFFSET -7.75947 0.938293 5.60832
                CHANNELS 3 Zrotation Xrotation Yrotation
                JOINT rIndex2
                {
                  OFFSET -2.54057 -0.884171 1.56538
                  CHANNELS 3 Zrotation Xrotation Yrotation
                  End Site
                  {
                    OFFSET -1.62519 -0.234802 1.16502
                  }
                }
              }
              JOINT rMid1
              {
                OFFSET -8.24714 1.18213 3.41376
                CHANNELS 3 Zrotation Xrotation Yrotation
                JOINT rMid2
                {
                  OFFSET -3.10165 -0.590103 1.0647
                  CHANNELS 3 Zrotation Xrotation Yrotation
                  End Site
                  {
                    OFFSET -2.48547 -0.328903 0.83742
                  }
                }
              }
              JOINT rRing1
              {
                OFFSET -8.82822 0.546677 1.51678
                CHANNELS 3 Zrotation Xrotation Yrotation
                JOINT rRing2
                {
                  OFFSET -2.60934 -0.819778 -0.0198488
                  CHANNELS 3 Zrotation Xrotation Yrotation
                  End Site
                  {
                    OFFSET -2.33842 -0.294052 0.168128
                  }
                }
              }
              JOINT rPinky1
              {
                OFFSET -8.27202 -0.0477905 -0.4584
                CHANNELS 3 Zrotation Xrotation Yrotation
                JOINT rPinky2
                {
                  OFFSET -1.82734 -0.647385 -0.700984
                  CHANNELS 3 Zrotation Xrotation Yrotation
                  End Site
                  {
                    OFFSET -1.69225 -0.51767 -0.607171
                  }
                }
              }
            }
          }
        }
      }
      JOINT lCollar
      {
        OFFSET 2.68224 19.2634 -4.8768
        CHANNELS 3 Zrotation Xrotation Yrotation
        JOINT lShldr
        {
          OFFSET 8.77824 -1.95073 1.46304
          CHANNELS 3 Zrotation Xrotation Yrotation
          JOINT lForeArm
          {
            OFFSET 28.1742 -1.7115 0.48768
            CHANNELS 3 Zrotation Xrotation Yrotation
            JOINT lHand
            {
              OFFSET 22.5879 0.773209 7.07136
              CHANNELS 3 Zrotation Xrotation Yrotation
              JOINT lThumb1
              {
                OFFSET 1.2192 -0.487915 3.41376
                CHANNELS 3 Zrotation Xrotation Yrotation
                JOINT lThumb2
                {
                  OFFSET 3.37035 -0.52449 3.41376
                  CHANNELS 3 Zrotation Xrotation Yrotation
                  End Site
                  {
                    OFFSET 1.78271 -1.18214 1.43049
                  }
                }
              }
              JOINT lIndex1
              {
                OFFSET 7.75947 0.938293 5.60832
                CHANNELS 3 Zrotation Xrotation Yrotation
                JOINT lIndex2
                {
                  OFFSET 2.54057 -0.884171 1.56538
                  CHANNELS 3 Zrotation Xrotation Yrotation
                  End Site
                  {
                    OFFSET 1.62519 -0.234802 1.16502
                  }
                }
              }
              JOINT lMid1
              {
                OFFSET 8.24714 1.18213 3.41376
                CHANNELS 3 Zrotation Xrotation Yrotation
                JOINT lMid2
                {
                  OFFSET 3.10165 -0.590103 1.0647
                  CHANNELS 3 Zrotation Xrotation Yrotation
                  End Site
                  {
                    OFFSET 2.48547 -0.328903 0.83742
                  }
                }
              }
              JOINT lRing1
              {
                OFFSET 8.82822 0.546677 1.51678
                CHANNELS 3 Zrotation Xrotation Yrotation
                JOINT lRing2
                {
                  OFFSET 2.60934 -0.819778 -0.0198488
                  CHANNELS 3 Zrotation Xrotation Yrotation
                  End Site
                  {
                    OFFSET 2.33842 -0.294052 0.168128
                  }
                }
              }
              JOINT lPinky1
              {
                OFFSET 8.27202 -0.0477905 -0.4584
                CHANNELS 3 Zrotation Xrotation Yrotation
                JOINT lPinky2
                {
                  OFFSET 1.82734 -0.647385 -0.700984
                  CHANNELS 3 Zrotation Xrotation Yrotation
                  End Site
                  {
                    OFFSET 1.69225 -0.51767 -0.607171
                  }
                }
              }
            }
          }
        }
      }
    }
  }
  JOINT rButtock
  {
    OFFSET -8.77824 4.35084 1.2192
    CHANNELS 3 Zrotation Xrotation Yrotation
    JOINT rThigh
    {
      OFFSET 0 -1.70687 -2.19456
      CHANNELS 3 Zrotation Xrotation Yrotation
      JOINT rShin
      {
        OFFSET 0 -36.8199 0.73152
        CHANNELS 3 Zrotation Xrotation Yrotation
        JOINT rFoot
        {
          OFFSET 0.73152 -45.1104 -5.12064
          CHANNELS 3 Zrotation Xrotation Yrotation
          End Site
          {
            OFFSET -1.1221 -3.69964 12.103
          }
        }
      }
    }
  }
  JOINT lButtock
  {
    OFFSET 8.77824 4.35084 1.2192
    CHANNELS 3 Zrotation Xrotation Yrotation
    JOINT lThigh
    {
      OFFSET 0 -1.70687 -2.19456
      CHANNELS 3 Zrotation Xrotation Yrotation
      JOINT lShin
      {
        OFFSET 0 -36.8199 0.73152
        CHANNELS 3 Zrotation Xrotation Yrotation
        JOINT lFoot
        {
          OFFSET -0.73152 -45.1104 -5.12064
          CHANNELS 3 Zrotation Xrotation Yrotation
          End Site
          {
            OFFSET 1.1221 -3.69964 12.103
          }
        }
      }
    }
  }
}
MOTION
Frames:	4
Frame Time:	0.03333
-48.179100000000005 59.644 -46.012 -174.168671 -13.490597 163.285627 1.474057 23.936211 -0.0 -0.235043 -6.938848 22.959031 7.215551 17.851801 66.357168 -22.128921 -4.74922 -63.35967 -0.000929 0.0 -0.001305 0.0048 -0.0 -0.001406 -159.221035 -48.028463 170.415168 126.651873 41.478733 -144.278596 107.922323 -11.944096 48.557199 -175.529511 34.713187 146.687362 -3.03068 2.964027 0.541441 -133.320072 -33.596662 115.609917 -153.453677 -21.067396 121.745055 -21.731222 44.621005 10.939371 -8.306425 20.652503 5.560697 86.264469 -78.336107 57.451739 -72.350334 72.975613 90.217653 4.951483 -24.920527 -7.859198 -13.278192 -25.410113 -12.632959 -128.260602 -29.000978 -127.05105 136.301906 48.979881 -140.373908 -170.051335 5.056617 -102.710959 -138.555923 -64.172333 -72.327493 -176.233076 -1.907747 -144.795166 1.583856 1.556092 -0.264883 -28.413087 -45.181823 16.235235 35.097787 35.161264 -26.611758 155.209118 2.107816 -110.302038 108.910073 57.217314 -99.528179 163.835079 -7.049676 -143.343709 0.020387 -1.725145 0.542565 -9.373723 12.724253 -1.661164 13.275637 -25.411354 12.630429 145.779333 8.277153 142.733207 -0.0 -0.001711 -0.001504 -13.411012 -12.395962 81.331863 84.893127 2.743639 63.541907 86.174533 19.144023 159.585783 -179.998375 75.749451 -0.001677 -142.623326 21.124955 -136.797919 -60.976598 -23.241883 -119.59653 -97.876453 -23.893797 143.495809
-49.472 59.49100000000001 -46.9657 -173.368804 -15.682339 162.16581 1.594827 24.457184 33.986502 -2.541365 -6.721924 -13.005162 -2.303844 33.406203 -166.138131 3.211605 38.234245 170.656507 0.000496 -0.0 -0.001507 0.000496 -0.0 -0.001507 -155.54858 -3.804497 161.899228 136.786817 -17.532579 171.462531 169.767784 10.648647 81.284268 165.480969 -21.013616 144.041311 1.841935 -1.82736 -0.253747 -123.631055 -14.305753 111.180058 -145.338439 -6.26481 118.67714 -62.920787 57.120716 45.733168 -160.342066 -5.644475 143.086319 -85.912644 63.858361 77.761052 -145.119805 0.267982 -179.212036 -135.657072 -63.688449 -157.632974 0.098893 0.258103 0.092325 -127.322025 -31.012861 -125.731156 159.220139 -48.028338 -170.416013 54.618101 0.181276 24.307894 2.285799 -27.064574 63.136656 -150.371018 -43.945973 -134.170554 -3.594431 -3.575809 0.441738 157.617813 -71.077395 -120.963227 155.194148 -24.300427 -122.141129 -173.376351 -54.026657 -109.049625 0.05689 0.168015 -0.031933 5.537673 22.581859 -4.800686 114.668082 66.730444 -135.090521 18.381952 -73.209314 34.965804 146.223898 15.471037 142.747203 76.301795 -52.929151 75.868165 0.000267 0.000922 -0.000344 -12.988629 -10.096412 127.23548 83.515849 -36.701814 124.77703 24.170371 68.600165 100.329046 -0.000198 -0.000717 -0.0 44.478042 -40.040869 33.004839 -7.523263 57.338228 -79.16809 51.99685 76.034283 4.479003
-50.597 59.404 -47.783 -171.113422 -16.901828 161.155896 5.259227 25.401073 -2.062785 0.608671 -7.763076 21.004216 -11.253559 28.988698 -110.199044 26.927974 25.866105 110.467987 -0.00502 0.0 -0.001405 0.000472 -0.0 -0.000945 -143.619939 38.233186 148.080201 92.052516 -40.012857 114.741352 150.257898 22.165369 94.632939 170.591986 -5.758878 147.020043 -0.442 0.435055 0.070249 -123.225928 -15.13952 110.489672 -72.555977 43.283368 59.932049 -73.211655 51.976292 51.918997 23.902749 -61.334024 1.398565 -1.50757 12.598337 2.275392 -0.005528 -0.560284 -0.176512 -6.584229 62.753389 19.320637 -24.459984 -37.234642 -23.540591 -158.224984 52.57738 -149.488151 155.809861 -5.555382 -162.266779 61.713885 4.914352 -12.924579 171.01345 -4.22675 158.106625 6.122003 45.81871 -5.623825 -179.142516 -18.272373 -89.128761 -123.406287 -64.986627 -93.117193 -17.190231 -30.894663 5.916557 174.376934 -35.315276 -107.596915 36.037199 51.722618 -29.832988 7.188597 26.202445 -6.142112 145.062323 -3.306829 178.085563 66.411572 87.681497 -79.948165 152.502541 38.522823 147.79967 1.623653 -8.110981 4.658756 -0.003545 -0.000347 -0.001772 -10.391464 -6.022554 -60.224232 -75.685783 25.805886 -6.636201 39.323244 0.109168 59.649728 179.994159 75.750309 0.006026 -145.6042 19.966234 -36.924704 -30.213155 62.070317 163.910929 -133.740461 0.871347 118.003786
-51.789300000000004 59.252700000000004 -48.3185 -168.389168 -17.226564 160.91864 8.938594 24.483279 -20.783048 2.049416 -7.486923 38.831292 -0.184395 33.03567 -177.727198 -3.968056 37.467069 -177.058432 0.003471 0.0 0.001763 0.00321 -0.0 -0.001948 -13.742088 42.431944 15.567979 56.447712 8.478107 36.338233 -3.1744 -20.538365 58.958956 -6.556213 33.439909 2.562244 1.842585 -1.82704 -0.254867 33.202641 -58.073912 -19.483636 -158.737082 -30.754968 122.631251 -143.818823 16.51479 115.08222 -17.370353 35.632143 12.954155 -163.41031 -5.584399 143.392658 -145.10884 3.681305 179.714594 -145.345236 -50.824888 -167.350138 0.322841 0.844232 0.294896 -77.776395 -54.759629 -77.398918 155.61422 -4.236519 -161.990648 57.760842 -6.781962 -10.546632 85.232418 -54.489776 102.297956 -15.68258 -18.346869 -14.91176 -178.740681 -18.647621 -89.060495 -50.931694 -72.844956 -37.618932 1.161107 1.860956 -0.669872 166.571613 -20.413097 -109.637348 160.098863 -4.900893 -142.969443 170.464853 -26.281431 -143.873861 -0.004263 1.770909 -0.556406 150.983653 35.18883 -165.821548 11.665791 -23.130603 11.069065 23.92895 -41.350621 25.110664 -0.000431 0.001011 -0.000646 -9.282488 -4.677561 -63.4835 -66.516798 33.826669 137.859885 -33.831832 0.233562 -85.195417 0.029263 -0.000188 0.021947 49.872622 -45.442225 -120.988999 -53.452474 -51.019877 -139.308933 -67.782095 78.977943 -3.719109
